<?xml version="1.0" encoding="UTF-8"?>
<svg version="1.1" xmlns="http://www.w3.org/2000/svg" width="471" height="440">
<path d="M0 0 C0.66 0 1.32 0 2 0 C3.28320313 1.67602539 3.28320313 1.67602539 4.78125 4.09765625 C5.36390625 5.02650635 5.9465625 5.95535645 6.546875 6.91235352 C7.19140625 7.95190186 7.8359375 8.9914502 8.5 10.0625 C9.92351228 12.32528008 11.34961379 14.58612717 12.78125 16.84375 C13.1743335 17.46395523 13.56741699 18.08416046 13.97241211 18.72315979 C19.83521007 27.93199353 25.93244138 36.9879648 32 46.0625 C32.59369385 46.9509964 33.1873877 47.8394928 33.79907227 48.75491333 C37.19628157 53.83868836 40.59666687 58.92032272 44 64 C57.66907514 60.23560069 71.29885278 56.39003378 84.82446289 52.13452148 C85.72543701 51.85423096 86.62641113 51.57394043 87.5546875 51.28515625 C88.73780518 50.91209351 88.73780518 50.91209351 89.94482422 50.53149414 C92 50 92 50 95 50 C94.92483154 51.11198257 94.84966309 52.22396515 94.7722168 53.36964417 C94.06339667 63.85991341 93.35704332 74.35034625 92.65309143 84.84094334 C92.29112309 90.2339716 91.9282924 95.62693894 91.56347656 101.01977539 C91.21130278 106.22620712 90.86141301 111.43278782 90.51309204 116.63947868 C90.37994356 118.62379341 90.24597857 120.60805353 90.11117554 122.59225655 C89.92220162 125.37589776 89.73615757 128.15972072 89.55078125 130.94360352 C89.49467682 131.76000305 89.43857239 132.57640259 89.38076782 133.4175415 C88.20025684 141.72968885 88.20025684 141.72968885 90.6875 149.00390625 C91.450625 149.51824219 92.21375 150.03257812 93 150.5625 C93.81339844 151.13226563 94.62679688 151.70203125 95.46484375 152.2890625 C96.71974609 153.13597656 96.71974609 153.13597656 98 154 C99.52663956 155.13808598 101.0479862 156.2833267 102.5625 157.4375 C103.70771066 158.29250133 104.85329616 159.14700232 106 160 C106.59425781 159.45472656 107.18851562 158.90945312 107.80078125 158.34765625 C112.25466273 154.29552458 116.75091186 150.34418496 121.4375 146.5625 C125.24087503 143.48663412 128.90082652 140.31246834 132.5 137 C147.7507837 123 147.7507837 123 151 123 C152.42976898 129.76152004 153.85328941 136.52433372 155.27246094 143.28808594 C155.75604571 145.58917055 156.24106333 147.88995452 156.72753906 150.19042969 C157.42629335 153.49596528 158.1198979 156.80254563 158.8125 160.109375 C159.03123779 161.13867126 159.24997559 162.16796753 159.4753418 163.22845459 C159.67554932 164.18914856 159.87575684 165.14984253 160.08203125 166.13964844 C160.25968018 166.98348083 160.4373291 167.82731323 160.62036133 168.69671631 C161 171 161 171 161 175 C162.09610596 175.06477539 162.09610596 175.06477539 163.21435547 175.13085938 C174.14693978 175.8409155 185.0253346 176.98917671 195.91699219 178.15673828 C199.15259055 178.50295223 202.38875578 178.8434758 205.625 179.18359375 C207.69014025 179.40330696 209.75524576 179.623347 211.8203125 179.84375 C212.78381622 179.94482056 213.74731995 180.04589111 214.74002075 180.15002441 C216.08324905 180.29522522 216.08324905 180.29522522 217.45361328 180.44335938 C218.23745392 180.52694702 219.02129456 180.61053467 219.82888794 180.69665527 C221.94057072 180.99169662 223.94354859 181.44244473 226 182 C223.90460922 188.72960251 221.31530415 195.14442727 218.47265625 201.58984375 C217.82737221 203.06669395 217.82737221 203.06669395 217.16905212 204.57337952 C215.80387168 207.69637498 214.4335047 210.81705757 213.0625 213.9375 C211.69589022 217.05472361 210.3304333 220.1724434 208.96665955 223.29090881 C208.12145602 225.22289426 207.27453482 227.15412956 206.42555237 229.0844574 C203.82921244 235.01056302 201.3654069 240.97799996 199 247 C199.62106628 247.29731522 200.24213257 247.59463043 200.88201904 247.9009552 C203.27221289 249.14125441 204.88813035 250.58513481 206.828125 252.44921875 C207.54613281 253.13306641 208.26414062 253.81691406 209.00390625 254.52148438 C210.11572266 255.59366211 210.11572266 255.59366211 211.25 256.6875 C218.61003565 263.74032279 226.13666106 270.51274538 234 277 C233.72900245 281.3678428 232.03104546 283.3547263 228.84912109 286.24853516 C228.28016113 286.74401855 227.71120117 287.23950195 227.125 287.75 C226.53928223 288.27513184 225.95356445 288.80026367 225.35009766 289.34130859 C220.90516979 293.295164 216.31817295 297.06482925 211.6796875 300.7890625 C208.86746685 303.1093495 206.18202737 305.53071134 203.5 308 C199.05272888 312.09351091 194.45282537 315.92442499 189.75 319.71875 C186.91900422 322.06718968 184.20616402 324.50909902 181.5 327 C177.05272888 331.09351091 172.45282537 334.92442499 167.75 338.71875 C164.91900422 341.06718968 162.20616402 343.50909902 159.5 346 C155.06290339 350.08414574 150.47515022 353.90796081 145.78125 357.69140625 C141.83045874 360.97078495 138.07391297 364.44007211 134.3125 367.93359375 C132 370 132 370 129 372 C130.49914408 379.70219853 132.93011127 386.89682508 135.5703125 394.27734375 C136.01640552 395.53745008 136.46194226 396.79775346 136.9069519 398.0582428 C138.06977336 401.34854215 139.23826214 404.63679523 140.40856934 407.92443848 C142.06495791 412.57863919 143.71724856 417.23428643 145.36447144 421.89173889 C146.24039879 424.36687793 147.11948633 426.84090127 148.00198364 429.31370544 C148.59292313 430.98167931 148.59292313 430.98167931 149.19580078 432.68334961 C149.54506622 433.66436142 149.89433167 434.64537323 150.25418091 435.65611267 C151 438 151 438 151 440 C110.08 440 69.16 440 27 440 C21.30769231 428.61538462 21.30769231 428.61538462 19.1875 423.5 C18.55908203 421.99953125 18.55908203 421.99953125 17.91796875 420.46875 C17 418 17 418 17 416 C7.1 416.33 -2.8 416.66 -13 417 C-16.63 424.59 -20.26 432.18 -24 440 C-66.24 440 -108.48 440 -152 440 C-151.34594119 436.72970593 -150.79136481 434.15247643 -149.65234375 431.12548828 C-149.38087021 430.39854767 -149.10939667 429.67160706 -148.82969666 428.92263794 C-148.53527176 428.14637054 -148.24084686 427.37010315 -147.9375 426.5703125 C-147.6299025 425.75061981 -147.32230499 424.93092712 -147.00538635 424.08639526 C-146.00755047 421.43108688 -145.00398037 418.77799056 -144 416.125 C-143.31616151 414.30995737 -142.63248671 412.49485306 -141.94897461 410.6796875 C-137.07092344 397.74502203 -132.10788606 384.84584895 -127 372 C-127.58539551 371.72921631 -128.17079102 371.45843262 -128.77392578 371.17944336 C-130.98436788 370.00828238 -132.70568891 368.73529141 -134.6171875 367.12890625 C-135.29942383 366.56018799 -135.98166016 365.99146973 -136.68457031 365.40551758 C-137.40741211 364.79732178 -138.13025391 364.18912598 -138.875 363.5625 C-144.27311135 359.06388155 -149.69834771 354.62036106 -155.25 350.3125 C-160.31483332 346.37406376 -165.23371803 342.29718828 -170.10644531 338.12426758 C-173.99304278 334.81147879 -177.96770053 331.63326582 -182 328.5 C-187.14877299 324.49918743 -192.1535141 320.36609011 -197.10546875 316.125 C-201.55708333 312.33088782 -206.13737086 308.72317334 -210.75634766 305.13598633 C-215.44482384 301.47813838 -219.98176086 297.66400134 -224.4987793 293.79760742 C-228.5454722 290.34711005 -232.69658387 287.12208621 -237 284 C-235.66420352 281.02363795 -234.20765397 278.96048142 -231.875 276.6875 C-231.33617187 276.15511719 -230.79734375 275.62273437 -230.2421875 275.07421875 C-228.31181533 273.28845634 -226.34504305 271.57343984 -224.3515625 269.859375 C-219.51356424 265.64474929 -215.01122044 261.12147766 -210.5 256.5625 C-209.67757812 255.73556641 -208.85515625 254.90863281 -208.0078125 254.05664062 C-206.00287887 252.04005041 -204.00033747 250.02114764 -202 248 C-210.38210538 225.88603375 -219.18039453 203.94217909 -228 182 C-224.76384155 179.84256104 -223.48538281 179.67015971 -219.70581055 179.40576172 C-218.08348763 179.2858638 -218.08348763 179.2858638 -216.4283905 179.1635437 C-215.25963882 179.08637115 -214.09088715 179.00919861 -212.88671875 178.9296875 C-211.08325737 178.80075607 -211.08325737 178.80075607 -209.24336243 178.66921997 C-205.39193853 178.39620662 -201.5397722 178.13573965 -197.6875 177.875 C-195.10215939 177.69217036 -192.51687205 177.50858575 -189.93164062 177.32421875 C-187.45838108 177.15036112 -184.98507511 176.97716241 -182.51171875 176.8046875 C-181.34903976 176.72346649 -180.18636078 176.64224548 -178.9884491 176.55856323 C-177.35194145 176.4481218 -177.35194145 176.4481218 -175.68237305 176.33544922 C-174.72767624 176.27042206 -173.77297943 176.2053949 -172.78935242 176.13839722 C-169.85511118 175.99281116 -166.93736388 175.9767157 -164 176 C-163.76635742 174.92830566 -163.53271484 173.85661133 -163.29199219 172.75244141 C-160.76951125 161.25304927 -158.05392328 149.80864992 -155.25 138.375 C-154.83446451 136.67452092 -154.41909926 134.97400023 -154.00390625 133.2734375 C-153.00455352 129.18181238 -152.00294243 125.09074662 -151 121 C-147.68539307 122.10486898 -147.03023894 122.87623086 -144.875 125.5 C-142.20785079 128.65106235 -139.44435078 131.60589411 -136.5 134.5 C-133.0711721 137.88241399 -129.87951482 141.38070442 -126.74609375 145.03515625 C-124.28113933 147.80891927 -121.63287027 150.37939465 -118.984375 152.9765625 C-116.37779725 155.63445083 -114.00145653 158.45939034 -111.640625 161.3359375 C-109.88705151 163.11456204 -108.28118411 164.01809901 -106 165 C-105.53851563 164.5153125 -105.07703125 164.030625 -104.6015625 163.53125 C-99.45239008 158.23961036 -94.06432518 153.23826444 -88 149 C-87.34 149 -86.68 149 -86 149 C-86.18651627 147.69011108 -86.18651627 147.69011108 -86.37680054 146.35375977 C-87.77657431 136.23526479 -88.8110631 126.11003491 -89.7265625 115.9375 C-89.88046237 114.24933223 -90.03454937 112.56118151 -90.18881226 110.87304688 C-90.50845446 107.36720686 -90.82585663 103.86117356 -91.14160156 100.35498047 C-91.54522036 95.87504727 -91.95456709 91.39565868 -92.36556435 86.91639709 C-92.68355542 83.44383218 -92.99853043 79.97099871 -93.312603 76.49807739 C-93.46238124 74.84587191 -93.61308485 73.19375004 -93.76475906 71.54171753 C-93.97595744 69.23640984 -94.1830768 66.93076984 -94.38916016 64.625 C-94.56664291 62.66433594 -94.56664291 62.66433594 -94.74771118 60.6640625 C-94.99340236 57.09581938 -95.04514674 53.5753621 -95 50 C-88.71946539 51.23076591 -82.8561356 52.98578412 -76.87890625 55.2578125 C-76.05293442 55.56572723 -75.22696259 55.87364197 -74.3759613 56.19088745 C-71.76934425 57.16334336 -69.1657472 58.14356253 -66.5625 59.125 C-63.9339176 60.11261072 -61.30471958 61.09847892 -58.67405701 62.08053589 C-57.04455681 62.68915852 -55.4163034 63.30113192 -53.78944397 63.91677856 C-49.99966961 65.44891182 -49.99966961 65.44891182 -46 66 C-44.28840113 63.72093555 -42.69600987 61.43642781 -41.125 59.0625 C-40.12733148 57.58263883 -39.12859854 56.1034948 -38.12890625 54.625 C-37.61215332 53.85800781 -37.09540039 53.09101562 -36.56298828 52.30078125 C-34.10907559 48.68852364 -31.5882666 45.12472333 -29.0625 41.5625 C-28.56516357 40.85947754 -28.06782715 40.15645508 -27.55541992 39.43212891 C-25.53159741 36.5718626 -23.50546537 33.71323534 -21.47949219 30.85449219 C-19.96460912 28.71612027 -18.45095514 26.57688272 -16.9375 24.4375 C-16.44725342 23.7460791 -15.95700684 23.0546582 -15.4519043 22.34228516 C-12.88542323 18.71219062 -10.35519888 15.06204098 -7.87109375 11.375 C-7.11614624 10.25847046 -7.11614624 10.25847046 -6.34594727 9.11938477 C-5.38339596 7.69161364 -4.4266052 6.25993781 -3.47631836 4.82397461 C-2.36770975 3.18099619 -1.19023377 1.58484533 0 0 Z " fill="#010101" transform="translate(237,0)"/>
<path d="M0 0 C0.66 0 1.32 0 2 0 C3.41015625 1.43359375 3.41015625 1.43359375 5.0625 3.4375 C7.75174994 6.60757217 10.53513377 9.58581525 13.5 12.5 C16.20383393 15.16754086 18.79255535 17.85459492 21.25 20.75 C24.48338946 24.52732413 27.9670049 28.00682451 31.5 31.5 C35.56632541 35.52059783 39.46842082 39.58078253 43.16796875 43.9453125 C47.22835156 48.49917467 51.65208234 52.72284411 56 57 C59.23048748 55.5800745 61.38242488 53.86380613 63.86328125 51.3671875 C64.58580078 50.64273438 65.30832031 49.91828125 66.05273438 49.171875 C66.79845703 48.41390625 67.54417969 47.6559375 68.3125 46.875 C69.04662109 46.14023438 69.78074219 45.40546875 70.53710938 44.6484375 C74.62506692 40.52783433 78.51981405 36.30168185 82.30932617 31.90673828 C85.06690608 28.79674564 88.03107406 25.90640492 91 23 C95.3108588 18.73893847 99.4841316 14.45001586 103.40234375 9.8203125 C106.42434712 6.37714974 109.72395671 3.19946046 113 0 C113.33 0.66 113.66 1.32 114 2 C112.9873591 4.68235356 111.90331317 7.25490044 110.72265625 9.86328125 C110.36555069 10.66909637 110.00844513 11.4749115 109.64051819 12.30514526 C108.86363822 14.05589326 108.08318036 15.80505687 107.29962158 17.55282593 C105.62299567 21.29291188 103.96338963 25.04046906 102.3026123 28.78761292 C101.44747539 30.71642878 100.5914264 32.64484052 99.73449707 34.57286072 C95.80434266 43.41865548 91.95414983 52.29762696 88.125 61.1875 C86.8352842 64.17736352 85.54468357 67.16684462 84.25390625 70.15625 C83.75934433 71.30188919 83.75934433 71.30188919 83.25479126 72.47067261 C78.99487466 82.33419729 74.71295535 92.18817503 70.42987061 102.04165649 C69.52197535 104.13040725 68.61429939 106.21925333 67.70684814 108.30819702 C66.44186122 111.22003883 65.1761315 114.13155652 63.91015625 117.04296875 C63.52866928 117.92130371 63.14718231 118.79963867 62.75413513 119.70458984 C62.40480423 120.50743408 62.05547333 121.31027832 61.69555664 122.13745117 C61.39073868 122.83859543 61.08592072 123.53973969 60.77186584 124.26213074 C60.21217489 125.52228458 59.6166428 126.76671441 59 128 C64.10249505 126.41667725 68.89528445 124.35556226 73.76171875 122.17578125 C74.61205185 121.79785431 75.46238495 121.41992737 76.33848572 121.0305481 C78.1678835 120.21746632 79.99679168 119.40328224 81.82525635 118.58810425 C97.06798934 111.79493871 112.34101261 105.08185149 127.70004272 98.55581665 C136.56094274 94.79057383 145.38581851 90.95471434 154.1796875 87.03515625 C156.08119011 86.19012402 157.98271991 85.34515299 159.88427734 84.50024414 C163.57430096 82.8601672 167.25841401 81.20762864 170.93994141 79.54858398 C172.6160004 78.80274936 174.29225975 78.05736476 175.96875 77.3125 C176.73887421 76.96127579 177.50899841 76.61005157 178.30245972 76.2481842 C183.6590815 73.8863605 183.6590815 73.8863605 187 75 C183.28596727 78.76118353 179.56151281 82.51192412 175.8203125 86.24609375 C175.18883301 86.87700928 174.55735352 87.5079248 173.90673828 88.15795898 C171.38877774 90.59048297 168.76235439 92.87714237 166.0859375 95.1328125 C162.49680324 98.34555814 159.1627509 101.81840239 155.77685547 105.24267578 C152.3691358 108.67412195 148.87862044 111.90884088 145.1875 115.03515625 C139.90238958 119.78231793 134.98746242 124.94411203 130 130 C135.72598988 136.90055191 141.84869348 143.37378225 148.6875 149.1875 C152.66559371 152.59160023 156.32000088 156.28126915 160 160 C164.17791544 164.22174931 168.37486975 168.30119999 172.9140625 172.13671875 C177.8254268 176.5238363 182.37973389 181.3104299 187 186 C186.34 186.33 185.68 186.66 185 187 C182.49511719 186.12646484 182.49511719 186.12646484 179.296875 184.7109375 C178.10578125 184.18878662 176.9146875 183.66663574 175.6875 183.12866211 C174.37497744 182.54415873 173.06247814 181.95960311 171.75 181.375 C170.38057285 180.77203929 169.0107747 180.16992054 167.640625 179.56860352 C164.80258055 178.3222839 161.96616184 177.07236853 159.13085938 175.81982422 C153.10152223 173.15942198 147.04985983 170.55080303 141 167.9375 C138.53366529 166.8689224 136.06748711 165.79999164 133.6015625 164.73046875 C132.94880341 164.44737854 132.29604431 164.16428833 131.62350464 163.87261963 C130.20411217 163.25704149 128.78472995 162.64143973 127.36535645 162.02581787 C124.74984728 160.8915127 122.13419551 159.7575367 119.51855469 158.62353516 C114.48098876 156.43926123 109.44416688 154.25327777 104.40771484 152.06643677 C102.42289077 151.20486701 100.43787228 150.34374496 98.45263672 149.48312378 C85.25336866 143.76050491 72.10396427 137.93770595 59 132 C66.64954735 149.67412139 74.31909078 167.3394863 82 185 C96.66147644 218.71327131 96.66147644 218.71327131 102.20703125 231.55078125 C104.06336976 235.84706278 105.93707935 240.13513193 107.82421875 244.41796875 C108.4745105 245.90478149 108.4745105 245.90478149 109.13793945 247.42163086 C109.93622487 249.2468009 110.74033295 251.06944051 111.55151367 252.88891602 C112.42726081 254.90104687 113.22289456 256.9477547 114 259 C113.67 259.66 113.34 260.32 113 261 C102.36569553 250.5387674 102.36569553 250.5387674 98.6875 246.1875 C95.33111711 242.24598498 91.67682066 238.63861992 88 235 C83.79657597 230.84015734 79.73674476 226.66340873 75.921875 222.140625 C72.59049351 218.43006188 69.00402023 214.96541949 65.44116211 211.47827148 C63.00613382 209.08075511 60.90234413 206.85351619 59 204 C55.48157214 204.58115374 53.83744782 205.79607503 51.35546875 208.31640625 C50.33936523 209.34024414 50.33936523 209.34024414 49.30273438 210.38476562 C48.25569336 211.46274414 48.25569336 211.46274414 47.1875 212.5625 C46.15786133 213.59987305 46.15786133 213.59987305 45.10742188 214.65820312 C41.15107663 218.67443629 37.39291324 222.81289196 33.70825195 227.07788086 C30.94197214 230.19048926 27.97448615 233.08813461 25 236 C20.73258803 240.21823278 16.60721765 244.46254468 12.73046875 249.046875 C9.02780341 253.22595552 4.98241005 257.08970603 1 261 C0.67 260.34 0.34 259.68 0 259 C0.83127866 256.74153299 1.72726792 254.60576381 2.7265625 252.421875 C3.02546387 251.75188477 3.32436523 251.08189453 3.63232422 250.39160156 C4.28183087 248.93803898 4.93492015 247.48607326 5.59112549 246.03552246 C6.98916067 242.94497251 8.37024051 239.84694384 9.75253296 236.74932861 C10.46306556 235.15773395 11.17452186 233.56655135 11.88687134 231.97576904 C15.19187907 224.59235585 18.41916652 217.17690539 21.625 209.75 C22.15835219 208.51639769 22.69179972 207.2828366 23.2253418 206.04931641 C24.28799316 203.59203771 25.35006708 201.13451077 26.41162109 198.67675781 C29.08340061 192.49131796 31.75974975 186.30785705 34.4375 180.125 C34.96190674 178.91408691 35.48631348 177.70317383 36.02661133 176.45556641 C42.3111399 161.95295569 48.65498519 147.47622524 55 133 C44.89248807 136.71907095 35.05917379 140.96602381 25.21551514 145.32522583 C20.65032275 147.34672583 16.08063424 149.35802654 11.51171875 151.37109375 C10.60299011 151.77182602 9.69426147 152.17255829 8.75799561 152.58543396 C-0.01651601 156.45319471 -8.81240315 160.26985927 -17.61669922 164.06933594 C-23.96620005 166.81173747 -30.30793905 169.57041958 -36.63903809 172.35508728 C-40.22750715 173.93338518 -43.81748219 175.50824416 -47.40740967 177.08322144 C-49.1639375 177.85512701 -50.91968896 178.62880193 -52.67462158 179.40432739 C-55.12619401 180.48756598 -57.58037971 181.56467132 -60.03515625 182.640625 C-61.1330674 183.12869881 -61.1330674 183.12869881 -62.25315857 183.62663269 C-65.81056202 185.17903552 -69.14866002 186.44209342 -73 187 C-68.59826309 181.66539891 -63.89390027 176.93415725 -58.8125 172.25 C-53.76828824 167.55744496 -48.77866852 162.83969165 -43.9375 157.9375 C-40.51896243 154.47802186 -37.02372958 151.24388666 -33.31640625 148.1015625 C-29.29146472 144.4499292 -25.52549038 140.526233 -21.74682617 136.62182617 C-20.87054565 135.72814331 -20.87054565 135.72814331 -19.9765625 134.81640625 C-19.45143066 134.27443604 -18.92629883 133.73246582 -18.38525391 133.17407227 C-17 132 -17 132 -15 132 C-16.08300239 128.75099283 -16.63159369 128.25293388 -19.1875 126.1875 C-23.35324276 122.66725972 -27.17222515 118.87758522 -31 115 C-36.3444168 109.58479673 -36.3444168 109.58479673 -42 104.5 C-46.55255278 100.65387783 -50.66165504 96.36584762 -54.84741211 92.13085938 C-58.55604004 88.39464122 -62.35680035 84.86417196 -66.37890625 81.46484375 C-68.88889732 79.19677953 -70.92120425 76.66345705 -73 74 C-68.23317272 74.67771747 -64.19711174 76.52129674 -59.84375 78.47265625 C-59.04208908 78.82697723 -58.24042816 79.18129822 -57.41447449 79.5463562 C-55.68212827 80.31258845 -53.9507725 81.08106307 -52.2203064 81.85153198 C-47.56415203 83.92425954 -42.90051598 85.98005821 -38.23828125 88.0390625 C-37.28806595 88.45931198 -36.33785065 88.87956146 -35.35884094 89.31254578 C-26.48822619 93.23373308 -17.59284813 97.09597487 -8.6875 100.9375 C-7.20938553 101.5755889 -5.73127684 102.21369119 -4.25317383 102.85180664 C-1.18726198 104.17506003 1.87894494 105.49762722 4.9453125 106.81982422 C10.6624054 109.28524222 16.37809383 111.75390965 22.09375 114.22265625 C32.72874319 118.81608532 43.36422182 123.40838885 54 128 C53.11905125 124.23778919 51.74797102 120.87908344 50.21875 117.32421875 C49.93393265 116.66015015 49.6491153 115.99608154 49.35566711 115.31188965 C48.40688738 113.10240825 47.45355124 110.89492592 46.5 108.6875 C45.82236136 107.11310098 45.14487421 105.53863674 44.4675293 103.96411133 C35.8254198 83.89544359 27.0675896 63.87665237 18.31396484 43.85644531 C15.99309201 38.54794203 13.67540325 33.23805716 11.35946655 27.92739868 C10.45765725 25.86111422 9.5546942 23.7953329 8.65054321 21.73007202 C7.38917442 18.8486282 6.13166553 15.96552874 4.875 13.08203125 C4.49667526 12.22034332 4.11835052 11.3586554 3.7285614 10.47085571 C3.20936882 9.27642349 3.20936882 9.27642349 2.6796875 8.05786133 C2.22698486 7.02185539 2.22698486 7.02185539 1.76513672 5.96492004 C0.99849988 3.99614758 0.46568825 2.0588105 0 0 Z " fill="#FBFBFB" transform="translate(182,138)"/>
<path d="M0 0 C0.67289062 0.67417969 1.34578125 1.34835938 2.0390625 2.04296875 C4.1936953 4.19835969 6.35710743 6.3446505 8.5234375 8.48828125 C20.77303999 20.63684307 20.77303999 20.63684307 25.43359375 26.234375 C27.93780895 29.05708141 30.77157312 31.54197244 33.59375 34.04296875 C35 36 35 36 34.94140625 38.45703125 C33.85493863 41.39184628 32.49646589 43.14689613 30.4375 45.5 C7.79841669 72.90095823 -2.56570938 110.93102139 0.46484375 146.10595703 C4.24060718 184.5839673 21.74700826 221.43864021 51.73779297 246.44921875 C72.51279499 263.21141898 97.38661853 275.70202718 123.98828125 279.5078125 C124.65214844 279.67023438 125.31601563 279.83265625 126 280 C126.33 280.66 126.66 281.32 127 282 C124.03 288.27 121.06 294.54 118 301 C80.38 301 42.76 301 4 301 C5.31570361 295.07933376 6.58142185 289.96852176 8.828125 284.46484375 C9.09961365 283.78305557 9.37110229 283.1012674 9.65081787 282.39881897 C10.51082295 280.24242253 11.37992649 278.08985103 12.25 275.9375 C13.38289081 273.11435166 14.51197461 270.28968956 15.640625 267.46484375 C15.91982788 266.76821625 16.19903076 266.07158875 16.48669434 265.35385132 C18.72511483 259.7479995 20.86321462 254.10792766 22.9463501 248.44261169 C24.50314643 244.23093771 26.20363266 240.11320535 28 236 C27.41677979 235.7306665 26.83355957 235.46133301 26.23266602 235.18383789 C23.9873821 233.99330955 22.22510867 232.68505702 20.27734375 231.05859375 C19.57988037 230.47972412 18.88241699 229.90085449 18.16381836 229.30444336 C17.4291333 228.68835205 16.69444824 228.07226074 15.9375 227.4375 C14.39592786 226.15613626 12.85426134 224.87488607 11.3125 223.59375 C10.56742187 222.97242188 9.82234375 222.35109375 9.0546875 221.7109375 C6.52682495 219.60598732 3.9848208 217.51884748 1.4375 215.4375 C0.59058594 214.74527344 -0.25632812 214.05304688 -1.12890625 213.33984375 C-5.44765633 209.82020933 -9.77274895 206.30839411 -14.09790039 202.79663086 C-17.90465036 199.70508572 -21.70655962 196.60787887 -25.5 193.5 C-32.64854276 187.64439247 -39.82606826 181.82444621 -47 176 C-71.99854862 155.70391872 -71.99854862 155.70391872 -80 149 C-75.45934794 143.55694706 -70.64921611 138.49739646 -65.625 133.5 C-64.90828125 132.77941406 -64.1915625 132.05882812 -63.453125 131.31640625 C-59.3239682 127.1947028 -55.12812534 123.33518099 -50.54443359 119.72070312 C-48.5138836 117.45840209 -48.30498976 116.01882902 -48 113 C-48.71574454 110.13045145 -48.71574454 110.13045145 -49.99780273 107.15576172 C-50.45835556 106.00461884 -50.91890839 104.85347595 -51.39341736 103.66744995 C-51.90669097 102.4214803 -52.42008601 101.17556067 -52.93359375 99.9296875 C-53.45196253 98.64415917 -53.96903897 97.35810903 -54.48487854 96.07156372 C-55.84335001 92.69149646 -57.21628873 89.31751205 -58.59326172 85.94494629 C-60.79712894 80.54139272 -62.98091312 75.12972805 -65.16087532 69.71649551 C-65.92455957 67.82703925 -66.69560642 65.94071608 -67.46763611 64.05465698 C-67.93134109 62.90981842 -68.39504608 61.76497986 -68.87280273 60.58544922 C-69.49021584 59.07251785 -69.49021584 59.07251785 -70.12010193 57.52902222 C-71 55 -71 55 -71 52 C-63.74122361 51.42597941 -56.48207651 50.8568347 -49.22265625 50.29101562 C-46.75512108 50.09811807 -44.28767164 49.90412053 -41.8203125 49.70898438 C-38.26584702 49.42806694 -34.71108808 49.15115745 -31.15625 48.875 C-30.06010376 48.78750488 -28.96395752 48.70000977 -27.83459473 48.60986328 C-22.20233793 48.17636115 -16.64883461 47.90466102 -11 48 C-10.89429687 46.93007812 -10.78859375 45.86015625 -10.6796875 44.7578125 C-9.96129877 39.02330601 -8.51734637 33.47646134 -7.125 27.875 C-5.12130051 19.70014498 -3.19572885 11.53503376 -1.54296875 3.28125 C-1 1 -1 1 0 0 Z " fill="#EB4444" transform="translate(90,134)"/>
<path d="M0 0 C0.66 0 1.32 0 2 0 C3.28448142 6.22909244 4.56591932 12.4588053 5.84521484 18.68896484 C6.28103223 20.80955278 6.71755342 22.9299962 7.15478516 25.05029297 C7.78211364 28.09304948 8.40693234 31.136312 9.03125 34.1796875 C9.32654602 35.60787308 9.32654602 35.60787308 9.62780762 37.06491089 C9.80799438 37.94567291 9.98818115 38.82643494 10.17382812 39.73388672 C10.33371216 40.51110077 10.49359619 41.28831482 10.6583252 42.08908081 C11 44 11 44 11 46 C12.32354492 46.06368774 12.32354492 46.06368774 13.67382812 46.12866211 C26.00481865 46.80374482 38.23350012 48.15930303 50.5 49.5625 C52.59501117 49.79919051 54.69006305 50.03552103 56.78515625 50.27148438 C61.85724863 50.8435162 66.92876882 51.4203851 72 52 C70.38127843 57.22422303 68.25844556 62.14291568 66.04296875 67.1328125 C65.46570793 68.44244461 65.46570793 68.44244461 64.87678528 69.77853394 C63.64955535 72.561815 62.41876223 75.34350068 61.1875 78.125 C58.80909084 83.50605039 56.43387327 88.88837433 54.07568359 94.27832031 C52.82193468 97.14384828 51.54816572 99.9974754 50.24072266 102.83886719 C49.76554199 103.90008789 49.29036133 104.96130859 48.80078125 106.0546875 C48.19423706 107.37315674 48.19423706 107.37315674 47.57543945 108.71826172 C46.78799234 110.98557207 46.78799234 110.98557207 47.68774414 113.10864258 C49.04907363 115.07072994 50.43751858 116.59184892 52.1953125 118.20703125 C52.82493896 118.79025146 53.45456543 119.37347168 54.10327148 119.97436523 C55.1040271 120.88424194 55.1040271 120.88424194 56.125 121.8125 C56.80570557 122.43906494 57.48641113 123.06562988 58.18774414 123.71118164 C62.72983098 127.87978268 67.3205415 131.98611 72 136 C73.50112758 137.31121022 75.00113091 138.62370866 76.5 139.9375 C77.50546875 140.81728516 77.50546875 140.81728516 78.53125 141.71484375 C79.0159375 142.13894531 79.500625 142.56304687 80 143 C78.4367019 146.9683721 75.6788236 149.41574869 72.5625 152.1875 C72.02826416 152.67017334 71.49402832 153.15284668 70.94360352 153.65014648 C66.65039244 157.49737547 62.20541626 161.13954301 57.71484375 164.75390625 C54.89326505 167.0883059 52.19409288 169.51990598 49.5 172 C45.05272888 176.09351091 40.45282537 179.92442499 35.75 183.71875 C32.91900422 186.06718968 30.20616402 188.50909902 27.5 191 C23.05272888 195.09351091 18.45282537 198.92442499 13.75 202.71875 C10.91900422 205.06718968 8.20616402 207.50909902 5.5 210 C1.06424052 214.08291497 -3.52170454 217.90597776 -8.21484375 221.6875 C-12.20187179 224.99790757 -15.99054394 228.50340384 -19.78515625 232.03125 C-22 234 -22 234 -24 235 C-21.69080712 243.21379034 -18.85294201 251.2301117 -15.98620605 259.26095581 C-14.63905301 263.03748307 -13.30189287 266.81754218 -11.96484375 270.59765625 C-11.70498688 271.33214493 -11.44513 272.06663361 -11.17739868 272.82337952 C-9.16574441 278.51599379 -7.17675936 284.21549703 -5.25 289.9375 C-4.89071411 290.989375 -4.89071411 290.989375 -4.52416992 292.0625 C-3.5951806 294.85197392 -3 297.0347196 -3 300 C-39.3 300 -75.6 300 -113 300 C-121.35543767 283.28912467 -121.35543767 283.28912467 -120 279 C-118.93265625 278.79246094 -117.8653125 278.58492188 -116.765625 278.37109375 C-85.88318766 272.10265039 -59.66257904 258.85435582 -37 237 C-36.20980469 236.27296875 -35.41960937 235.5459375 -34.60546875 234.796875 C-14.7006469 215.97270022 -1.49377023 187.40443315 4 161 C4.20625 160.03964844 4.4125 159.07929688 4.625 158.08984375 C7.88622505 139.81339502 7.23415292 120.05086244 3 102 C2.83902832 101.28118652 2.67805664 100.56237305 2.51220703 99.82177734 C-3.35332892 74.24668832 -16.26505462 50.40798298 -35 32 C-33.75037201 28.25111602 -32.22103014 27.35380681 -29.125 24.9375 C-25.11670413 21.74225639 -21.26849608 18.48070027 -17.5 15 C-12.84259915 10.71170152 -8.04576365 6.68702481 -3.1171875 2.71484375 C-1.13793226 1.17273924 -1.13793226 1.17273924 0 0 Z " fill="#EB4444" transform="translate(382,135)"/>
<path d="M0 0 C0.66 0 1.32 0 2 0 C3.10247803 1.40791321 3.10247803 1.40791321 4.31933594 3.41137695 C5.01147186 4.53336739 5.01147186 4.53336739 5.71759033 5.67802429 C6.21812927 6.50228409 6.71866821 7.32654388 7.234375 8.17578125 C11.7153777 15.4138137 16.30999744 22.55308187 21.078125 29.60546875 C21.66718628 30.47696564 22.25624756 31.34846252 22.86315918 32.24636841 C24.65656989 34.89491312 26.45318708 37.54126257 28.25 40.1875 C29.49636413 42.0278117 30.74245907 43.86830575 31.98828125 45.70898438 C34.98910526 50.14141775 37.99317602 54.57163492 41 59 C48.62525702 57.53772853 48.62525702 57.53772853 56.1484375 55.6328125 C57.00324707 55.38869629 57.85805664 55.14458008 58.73876953 54.89306641 C59.60872559 54.63960449 60.47868164 54.38614258 61.375 54.125 C62.28749512 53.86251465 63.19999023 53.6000293 64.14013672 53.32958984 C70.0949427 51.60118441 75.97900449 49.74661579 81.8203125 47.6640625 C84 47 84 47 87 47 C87.35462604 62.38619442 86.24187157 77.603638 85.0625 92.9375 C84.87766624 95.41206545 84.69341792 97.88667471 84.50976562 100.36132812 C83.74572853 110.58163518 82.95705604 120.79570153 82 131 C78.39827487 129.59457105 74.97179827 128.00474336 71.53320312 126.23339844 C34.77372682 107.32398483 -7.64551354 104.4908537 -46.95825195 117.09204102 C-56.98847959 120.52622152 -66.7984073 125.18824758 -75.828125 130.73828125 C-78 132 -78 132 -80 132 C-81.35755241 121.55221244 -82.53315933 111.10502857 -83.5078125 100.61328125 C-83.63932704 99.21321745 -83.77099338 97.8131679 -83.90280151 96.41313171 C-84.1749154 93.51686013 -84.44529768 90.62043399 -84.71435547 87.72387695 C-85.05847209 84.02071748 -85.40697157 80.31798529 -85.75671577 76.61535358 C-86.02778415 73.74073435 -86.29662423 70.86591009 -86.564785 67.9910183 C-86.69249146 66.62466319 -86.82087093 65.2583708 -86.94995499 63.89214516 C-87.12921375 61.99121526 -87.30515581 60.08997348 -87.48095703 58.1887207 C-87.58151398 57.11112991 -87.68207092 56.03353912 -87.78567505 54.92329407 C-87.98035309 52.26797489 -88.04084907 49.6609733 -88 47 C-81.9103891 48.65148252 -76.01402997 50.69358911 -70.12890625 52.953125 C-69.43477631 53.21903442 -68.74064636 53.48494385 -68.02548218 53.75891113 C-65.13079738 54.87071263 -62.23781955 55.98663506 -59.34887695 57.11328125 C-57.2161357 57.94316746 -55.07923304 58.76144592 -52.94140625 59.578125 C-52.28829971 59.83636047 -51.63519318 60.09459595 -50.96229553 60.36065674 C-47.05585541 61.87117559 -47.05585541 61.87117559 -43 61 C-41.484503 59.28768824 -41.484503 59.28768824 -40.06640625 57.125 C-39.22601807 55.90744019 -39.22601807 55.90744019 -38.36865234 54.6652832 C-37.77262207 53.78573975 -37.1765918 52.90619629 -36.5625 52 C-35.2959444 50.1599005 -34.02901123 48.32006083 -32.76171875 46.48046875 C-31.81111572 45.09287354 -31.81111572 45.09287354 -30.84130859 43.67724609 C-28.21943624 39.86506734 -25.55041919 36.08719857 -22.875 32.3125 C-21.90219031 30.93630637 -20.92953409 29.56000423 -19.95703125 28.18359375 C-19.47572754 27.50280762 -18.99442383 26.82202148 -18.49853516 26.12060547 C-16.9184496 23.88459648 -15.33989322 21.64751444 -13.76171875 19.41015625 C-12.95855225 18.27163208 -12.95855225 18.27163208 -12.13916016 17.11010742 C-11.1243931 15.67155177 -10.10973584 14.23291865 -9.09521484 12.79418945 C-8.17767048 11.49382962 -7.25815533 10.19485756 -6.33642578 8.89746094 C-5.41652994 7.59139034 -4.50931693 6.27632452 -3.61279297 4.95410156 C-2.45644453 3.26883469 -1.23373794 1.6294652 0 0 Z " fill="#EB4444" transform="translate(237,12)"/>
<path d="M0 0 C0.33 0.66 0.66 1.32 1 2 C-2.7567646 7.74563997 -8.67034518 11.80087802 -14 16 C-12.34136495 11.67495164 -9.128959 8.90581175 -5.875 5.75 C-5.31167969 5.19570312 -4.74835938 4.64140625 -4.16796875 4.0703125 C-2.78313972 2.70895515 -1.39216796 1.35385141 0 0 Z " fill="#E2E2E2" transform="translate(295,138)"/>
<path d="M0 0 C0.66 0.33 1.32 0.66 2 1 C1.3503125 1.62648438 0.700625 2.25296875 0.03125 2.8984375 C-1.22171875 4.12433594 -1.22171875 4.12433594 -2.5 5.375 C-3.3353125 6.18710937 -4.170625 6.99921875 -5.03125 7.8359375 C-7.22431286 9.7589659 -7.22431286 9.7589659 -7 12 C-8.65 12.33 -10.3 12.66 -12 13 C-8.19524578 8.43969176 -4.25030379 4.14910608 0 0 Z " fill="#E1E1E1" transform="translate(121,312)"/>
</svg>
